<svg
   xmlns="http://www.w3.org/2000/svg"
   width="40"
   height="26"
   viewBox="0 0 125.33333 52"><path
         d="M 12.984,0.016 C 11.57,0.016 10.25,0.727 9.449,1.719 8.68,2.676 8.32,3.75 8.09,4.766 7.625,6.812 7.66,8.949 7.66,10.504 c 0,3.961 1.188,8.426 2.594,12.703 -0.25,0.68 -0.445,1.355 -0.688,1.934 -1.16,2.722 -2.781,6.031 -3.535,7.152 C 5.488,31.582 4.984,30.953 4.344,30.051 3.562,28.949 2.047,28.711 0.98,29.516 c -1.066,0.808 -1.3,2.367 -0.515,3.468 1.351,1.903 2.734,3.957 4.027,5.289 0.934,0.969 2.465,0.969 3.403,0 0.945,-0.976 1.691,-2.277 2.73,-4.175 0.648,-1.184 1.355,-2.739 2.055,-4.266 0.605,1.492 1.226,3.016 1.804,4.18 0.946,1.902 1.614,3.222 2.625,4.261 v 0.004 c 0.938,0.961 2.465,0.961 3.403,0 v -0.004 c 0.554,-0.574 0.914,-1.16 1.375,-1.921 0.461,-0.774 0.976,-1.704 1.488,-2.715 1.023,-2.028 2.047,-4.356 2.609,-6.465 1.328,-4.996 1.059,-9.746 1.059,-14.668 0,-2.988 0.199,-5.215 0.648,-6.024 0.946,-1.511 3.161,-1.48 4.707,-1.503 3.106,0 6.204,1.632 7.719,3.921 1.992,3.012 1.578,7.762 0.586,8.735 -0.308,-0.375 -0.594,-0.77 -1.035,-1.11 -2.008,-1.55 -4.606,-2.058 -7.059,-1.769 -1.23,0.148 -2.504,0.523 -3.593,1.418 -1.11,0.914 -1.868,2.433 -1.852,4.074 0,1.578 0.75,3.008 1.789,3.875 1.016,0.848 2.195,1.266 3.367,1.492 2.325,0.446 4.828,0.203 6.938,-0.871 0.621,1.551 1.222,3.281 1.801,5.07 0.656,2.04 1.336,4.071 2.433,5.817 2.067,3.281 5.625,4.176 7.11,2.644 0.945,-0.976 1.691,-2.277 2.73,-4.175 0.648,-1.184 1.356,-2.743 2.055,-4.266 0.609,1.488 1.23,3.016 1.808,4.18 0.946,1.902 1.614,3.222 2.625,4.261 v 0.004 c 1.282,1.321 3.52,0.719 4.016,-1.082 1.156,-4.215 3.066,-10.953 5.59,-15.441 1.043,-1.856 2.179,-3.379 3.297,-4.965 2.726,1.75 5.445,3.328 6.468,4.434 2.129,2.297 2.485,6.41 1.422,9.187 -0.937,-0.976 -1.898,-2.015 -3.148,-2.922 -2,-1.457 -4.531,-2.097 -6.938,-1.347 0,0.004 0,0.004 -0.066,0.007 -1.816,0.614 -3.203,2.161 -3.535,3.989 -0.321,1.801 0.308,3.625 1.515,5.023 v 0.004 c 0.067,0.043 0.067,0.078 0.114,0.117 2.14,2.164 4.644,3.571 7.371,3.617 1.797,0.032 3.535,-0.609 5.164,-1.66 0.562,0.344 1.16,0.672 1.851,0.879 1.438,0.426 3.11,0.371 4.719,-0.312 4.028,-1.707 5.985,-4.993 5.985,-4.996 0.691,-1.161 0.343,-2.696 -0.786,-3.411 -1.129,-0.718 -2.621,-0.351 -3.316,0.813 0,0.094 -2.496,3.344 -4.777,3.098 C 87.277,28.48 86.555,21.988 82.656,17.785 80.594,15.562 77.691,14.078 75.145,12.484 76.031,10.656 76.73,8.652 76.52,6.27 76.406,4.965 75.969,3.68 75.215,2.527 74.453,1.363 73.199,0.145 71.383,0.012 69.48,-0.125 67.953,0.848 66.859,1.988 65.77,3.133 64.891,4.66 64.922,6.535 c 0.074,2.262 0.992,4.219 2.242,5.742 0.488,0.594 1.043,1.102 1.606,1.598 -1.086,1.539 -2.297,3.203 -3.524,5.383 -1.976,3.515 -3.293,7.449 -4.391,11.078 C 59.707,28.078 58.82,25.715 58.047,23.301 59.637,19.012 61,14.531 61,10.496 61,9 61,6.863 60.57,4.809 60.344,3.785 59.992,2.711 59.227,1.746 58.43,0.746 57.109,0.008 55.68,0.008 c -1.43,0 -2.754,0.738 -3.547,1.738 -0.766,0.965 -1.117,2.039 -1.348,3.063 -0.457,2.054 -0.43,4.191 -0.43,5.687 0,3.961 1.188,8.426 2.59,12.703 -0.25,0.68 -0.441,1.356 -0.687,1.934 -0.836,1.969 -2.645,6.004 -4.281,8.344 -1.25,-1.43 -1.786,-3.45 -2.372,-5.235 -0.636,-1.976 -1.273,-4.199 -2.164,-6.304 0.664,-0.633 1.297,-1.36 1.77,-2.329 C 47.32,15.262 46.602,9.91 44.074,6.094 41.52,2.234 37.031,0.008 32.383,0.008 c -2.141,0 -3.906,0.258 -5.414,0.906 -1.524,0.656 -2.735,1.766 -3.473,3.094 -1.445,2.613 -1.285,5.5 -1.285,8.488 0,5.078 0.191,9.324 -0.887,13.356 -0.449,1.691 -1.636,4.414 -2.512,5.992 -0.527,-0.996 -1.703,-3.516 -2.874,-6.614 -0.219,-0.582 -0.387,-1.253 -0.61,-1.929 1.594,-4.289 2.957,-8.77 2.957,-12.805 0,-1.555 0.067,-3.691 -0.43,-5.738 C 17.625,3.738 17.27,2.668 16.496,1.711 15.695,0.719 14.375,0.008 12.965,0.008 Z"
         style="fill:#000000;fill-opacity:1;fill-rule:nonzero;stroke:none"/>
</svg>
